# xmcd
#
# Track frame offsets:
#	150
#	12727
#	27613
#	41674
#	58381
#	73267
#	83983
#	95569
#	108430
#	118291
#	143227
#	156088
#	179299
#	192871
#	205631
#	216937
#	233827
#	251358
#	262868
#	274174
#	287910
#
# Disc length: 4186 seconds
#
# Revision: 0
# Processed by: cddbd v1.5.2PL0 Copyright (c) Steve Scherf et al.
# Submitted via: dBpowerAMP V4.0
#
DISCID=46105815
DTITLE=Mick Jagger with The Red Devils - Best Takes From The Famous Blues Sessions
DYEAR=1995
DGENRE=Blues
TTITLE0=Mean Old World
TTITLE1=Blues With A Feeling - Take 4
TTITLE2=Watch Yourself - Take 2
TTITLE3=Still A Fool - Take 3
TTITLE4=Checkin' Out My Baby - Take 3
TTITLE5=One Way Out - Take 2
TTITLE6=Talk To Me - Take 2
TTITLE7=Evil (Is Going On) - Take 4
TTITLE8=Ain't Your Business - Take 3
TTITLE9=Shake 'Em On Down - Take 1
TTITLE10=Somebody Gonna Love Me
TTITLE11=Dream Girl Blues - Take 3
TTITLE12=40 Days And 40 Nights - Take 1
TTITLE13=40 Days And 40 Nights - Take 2
TTITLE14=Blues With A Feeling - Take 2
TTITLE15=Blues With A Feeling - Take 5
TTITLE16=Still A Fool - Take 4
TTITLE17=One Way Out - Take 1
TTITLE18=Evil (Is Going On) - Take 2
TTITLE19=Evil (Is Going On) - Take 3
TTITLE20=Dream Girl Blues - Take 1
EXTD=
EXTT0=
EXTT1=
EXTT2=
EXTT3=
EXTT4=
EXTT5=
EXTT6=
EXTT7=
EXTT8=
EXTT9=
EXTT10=
EXTT11=
EXTT12=
EXTT13=
EXTT14=
EXTT15=
EXTT16=
EXTT17=
EXTT18=
EXTT19=
EXTT20=
PLAYORDER=
